# xmcd
#
# Track frame offsets:
#	182
#	18757
#	36255
#	55590
#	76777
#	97492
#	118010
#	135370
#	152245
#	171082
#	190547
#	211680
#	233297
#	254092
#
# Disc length: 3649 seconds
#
# Revision: 6
# Processed by: cddbd v1.5.2PL0 Copyright (c) Steve Scherf et al.
# Submitted via: EasyCDDAExtractor 15.3.0.1
#
DISCID=a90e3f0e
DTITLE=Olga Tañon - Llevame Contigo
DYEAR=1997
DGENRE=Latin
TTITLE0=Despierta Corazon
TTITLE1=Llego El Amor
TTITLE2=El Frio De Tu Adios
TTITLE3=Porque No Te Encontre
TTITLE4=Asi Es El Amor
TTITLE5=Llevame Contigo
TTITLE6=Que Grande Es Este Amor
TTITLE7=Serpiente Mala
TTITLE8=Cuando No Puedo Verlo
TTITLE9=Por Amor Al Arte
TTITLE10=Que Bailen Los Niños
TTITLE11=Choque De Planetas
TTITLE12=Lo Que Son Las Apariencias
TTITLE13=Siempre En Mi Corazon
EXTD=
EXTT0=
EXTT1=
EXTT2=
EXTT3=
EXTT4=
EXTT5=
EXTT6=
EXTT7=
EXTT8=
EXTT9=
EXTT10=
EXTT11=
EXTT12=
EXTT13=
PLAYORDER=
